<svg width="80" height="80" viewBox="0 0 80 80" fill="none" xmlns="http://www.w3.org/2000/svg">
<path fill-rule="evenodd" clip-rule="evenodd" d="M80 40C80 62.0914 62.0914 80 40 80C17.9086 80 0 62.0914 0 40C0 17.9086 17.9086 0 40 0C62.0914 0 80 17.9086 80 40ZM63.8996 59.7098V43.2187C63.8996 34.3877 59.1836 30.2778 52.8931 30.2778C47.8128 30.2778 45.5467 33.0729 44.2761 35.028V30.953H34.7135C34.8419 33.6504 34.7135 59.7091 34.7135 59.7091H44.2754V43.6487C44.2754 42.7866 44.3403 41.9331 44.592 41.3184C45.285 39.5986 46.8544 37.8224 49.4962 37.8224C52.958 37.8224 54.3385 40.4607 54.3385 44.3239V59.7098H63.8996ZM44.2761 35.028V35.1221H44.2126C44.2217 35.1059 44.2336 35.0894 44.2457 35.0727C44.2563 35.0579 44.2671 35.0431 44.2761 35.028ZM19.3005 22.0593C19.3005 19.2385 21.4403 17.0916 24.711 17.0916C27.9825 17.0916 29.9925 19.2385 30.056 22.0593C30.056 24.8202 27.9825 27.0292 24.6476 27.0292H24.5855C21.3783 27.0292 19.3005 24.8202 19.3005 22.0593ZM29.4271 59.7098H19.8688V30.953H29.4271V59.7098Z" fill="#F9F9F9"/>
</svg>
