<svg width="80" height="80" viewBox="0 0 80 80" fill="none" xmlns="http://www.w3.org/2000/svg">
<path d="M51.9218 21.2847H28.0782C24.2724 21.2847 21.1761 24.381 21.1761 28.1868V52.0305C21.1761 55.8362 24.2724 58.9335 28.0782 58.9335H51.9218C55.7276 58.9335 58.8248 55.8371 58.8248 52.0305V28.1868C58.8248 24.381 55.7285 21.2847 51.9218 21.2847ZM40 52.5028C33.1665 52.5028 27.6067 46.943 27.6067 40.1086C27.6067 33.2751 33.1665 27.7153 40 27.7153C46.8344 27.7153 52.3942 33.2751 52.3942 40.1086C52.3942 46.9421 46.8335 52.5028 40 52.5028ZM52.7926 30.2777C51.1749 30.2777 49.8594 28.9622 49.8594 27.3454C49.8594 25.7286 51.1749 24.4131 52.7926 24.4131C54.4094 24.4131 55.725 25.7286 55.725 27.3454C55.725 28.9622 54.4094 30.2777 52.7926 30.2777Z" fill="#F9F9F9"/>
<path d="M40 32.9524C36.0552 32.9524 32.843 36.1628 32.843 40.1076C32.843 44.0542 36.0552 47.2655 40 47.2655C43.9466 47.2655 47.1561 44.0542 47.1561 40.1076C47.1561 36.1637 43.9457 32.9524 40 32.9524Z" fill="#F9F9F9"/>
<path d="M40 0.000732422C17.9095 0.000732422 0 17.9102 0 40.0007C0 62.0912 17.9095 80.0007 40 80.0007C62.0905 80.0007 80 62.0912 80 40.0007C80 17.9102 62.0905 0.000732422 40 0.000732422ZM64.0611 52.0304C64.0611 58.7249 58.6163 64.1697 51.9218 64.1697H28.0782C21.3846 64.1697 15.9389 58.7249 15.9389 52.0304V28.1867C15.9389 21.4932 21.3846 16.0474 28.0782 16.0474H51.9218C58.6163 16.0474 64.0611 21.4932 64.0611 28.1867V52.0304Z" fill="#F9F9F9"/>
</svg>
