<svg width="80" height="80" viewBox="0 0 80 80" fill="none" xmlns="http://www.w3.org/2000/svg">
<path fill-rule="evenodd" clip-rule="evenodd" d="M40 80C62.0914 80 80 62.0914 80 40C80 17.9086 62.0914 0 40 0C17.9086 0 0 17.9086 0 40C0 62.0914 17.9086 80 40 80ZM56.7269 23.4646C57.6066 21.1232 57.017 17.9254 56.107 16C54.2108 16.0637 52.8084 16.324 51.151 17.0059C50.6591 17.2081 50.1415 17.537 49.6159 17.871C48.7818 18.4008 47.9276 18.9436 47.1237 19.0138C46.401 19.0774 45.5291 18.889 44.6001 18.6882C43.8124 18.5181 42.9837 18.339 42.17 18.2971C37.9529 18.0812 34.7166 18.4869 31.6389 19.3022C31.5147 19.2256 31.3907 19.1487 31.2667 19.0718C28.9133 17.6132 26.5637 16.1569 22.8111 16C21.5006 17.8334 21.1894 21.6841 22.192 24.0385C18.6539 26.8422 18.0916 34.3705 19.714 39.1096C19.1546 39.1107 18.5932 39.1099 18.0316 39.109C13.2684 39.1018 8.50246 39.0946 5 40.2582C7.70123 39.7856 11.979 39.3922 15.3771 39.2516C15.6376 39.2413 15.9206 39.2219 16.2156 39.2018C17.9918 39.0804 20.199 38.9297 20.4871 40.543C14.7852 40.7147 9.466 41.2379 5.15322 42.6973C9.90467 41.6437 15.0349 40.9465 20.6411 40.6893C23.0094 45.001 28.1023 46.7902 34.2693 47.5763C33.0272 48.4365 32.1849 49.6641 31.7913 51.3104C31.3491 51.4072 30.9677 51.5192 30.6055 51.6255C29.8159 51.8573 29.1169 52.0624 28.0751 52.0271C25.7953 51.9528 24.5194 50.531 23.2691 49.1377C21.8015 47.5022 20.369 45.9059 17.3892 46.5742C17.6449 47.4263 18.2804 47.8131 18.9439 48.217C19.3746 48.4791 19.8171 48.7484 20.1752 49.1567C20.6963 49.7474 20.9813 50.4497 21.2701 51.161C21.4882 51.6984 21.7085 52.2408 22.0341 52.7445C23.7258 55.3518 27.1822 56.3003 31.6381 55.472C31.5128 56.4984 31.5828 57.5139 31.6488 58.4711C31.743 59.8367 31.8289 61.0837 31.3278 62.0743C31.0436 62.6376 30.5798 62.8928 30.1377 63.1362C29.6311 63.415 29.1531 63.6781 29.0069 64.3707C31.1077 65.1482 33.8773 64.3903 34.7368 62.6482C35.4136 61.2749 35.2358 59.3096 35.0644 57.4142C34.8579 55.1317 34.6607 52.9507 35.9758 52.0271C35.748 53.626 35.8734 55.3868 35.9967 57.1188C36.1588 59.3971 36.3174 61.6254 35.6639 63.3685C35.5106 63.777 35.26 64.0853 35.0226 64.3777C34.6517 64.8344 34.3125 65.252 34.4249 65.9504C39.8398 66.5769 39.7007 61.1545 39.5725 56.1577C39.5513 55.3337 39.5305 54.5214 39.5349 53.7496C39.5357 53.6167 39.5144 53.4457 39.491 53.2582C39.4049 52.5675 39.2908 51.653 40.154 51.5959C40.4996 53.2198 40.4877 55.1716 40.4758 57.1062C40.4468 61.8234 40.4184 66.4386 45.5767 65.9504C45.766 65.3105 45.4331 64.8884 45.0481 64.4003C44.786 64.068 44.4999 63.7052 44.3377 63.2222C43.6847 61.2742 43.8674 58.6102 44.0426 56.0543C44.1402 54.631 44.2355 53.2412 44.1829 52.0271C45.4284 53.2899 45.244 55.526 45.0577 57.7852C44.9328 59.2999 44.807 60.8251 45.1108 62.0743C45.5518 63.8917 49.4321 65.8105 50.997 64.0852C50.7033 63.6655 50.3445 63.4326 49.986 63.1998C49.564 62.9259 49.1423 62.6522 48.8278 62.0743C48.1176 60.7681 48.2449 58.5458 48.376 56.2562C48.4688 54.6365 48.5635 52.9832 48.365 51.5967C48.1586 50.1576 47.5419 49.4242 46.9452 48.7145C46.6132 48.3196 46.2873 47.932 46.0418 47.4343C52.4312 46.9966 57.059 44.9183 59.3589 40.6901C63.9158 40.8086 68.3863 41.5256 72.3158 42.156C73.1878 42.2959 74.0331 42.4315 74.8468 42.5553C70.3287 41.2415 64.8617 40.8038 59.3589 40.4009C59.3008 39.3508 60.3505 39.3053 61.217 39.2678C61.3246 39.2632 61.4294 39.2587 61.5289 39.2523C65.4294 39.005 69.5185 39.5438 72.8965 39.989C73.6348 40.0863 74.3391 40.1791 75 40.2582C72.2827 39.2478 68.5374 39.1903 64.7934 39.1328C63.1052 39.1068 61.4173 39.0808 59.824 38.9675C61.56 33.2827 60.3241 26.3262 56.7269 23.4646Z" fill="#F9F9F9"/>
</svg>
